<?xml version="1.0" encoding="UTF-8"?>
<svg id="Layer_4" xmlns="http://www.w3.org/2000/svg" version="1.1" xmlns:xlink="http://www.w3.org/1999/xlink" viewBox="0 0 792 57.8">
  <!-- Generator: Adobe Illustrator 30.2.1, SVG Export Plug-In . SVG Version: 2.1.1 Build 1)  -->
  <defs>
    <style>
      .st0 {
        fill: url(#linear-gradient7);
      }

      .st0, .st1, .st2, .st3, .st4, .st5, .st6, .st7, .st8, .st9, .st10, .st11, .st12, .st13, .st14, .st15, .st16, .st17, .st18, .st19, .st20 {
        isolation: isolate;
        opacity: .4;
      }

      .st1 {
        fill: url(#linear-gradient2);
      }

      .st2 {
        fill: url(#linear-gradient12);
      }

      .st3 {
        fill: url(#linear-gradient11);
      }

      .st4 {
        fill: url(#linear-gradient16);
      }

      .st21, .st5 {
        fill: #fff;
      }

      .st6 {
        fill: url(#linear-gradient9);
      }

      .st7 {
        fill: url(#linear-gradient13);
      }

      .st8 {
        fill: url(#linear-gradient);
      }

      .st9 {
        fill: url(#linear-gradient17);
      }

      .st10 {
        fill: url(#linear-gradient15);
      }

      .st11 {
        fill: url(#linear-gradient4);
      }

      .st12 {
        fill: url(#linear-gradient1);
      }

      .st13 {
        fill: url(#linear-gradient6);
      }

      .st14 {
        fill: url(#linear-gradient19);
      }

      .st15 {
        fill: url(#linear-gradient8);
      }

      .st16 {
        fill: url(#linear-gradient18);
      }

      .st17 {
        fill: url(#linear-gradient5);
      }

      .st18 {
        fill: url(#linear-gradient3);
      }

      .st19 {
        fill: url(#linear-gradient14);
      }

      .st20 {
        fill: url(#linear-gradient10);
      }
    </style>
    <linearGradient id="linear-gradient" x1="403.4" y1="42.1" x2="403.4" y2="18" gradientTransform="translate(0 60) scale(1 -1)" gradientUnits="userSpaceOnUse">
      <stop offset="0" stop-color="#fff"/>
      <stop offset="0" stop-color="#f7f7f7"/>
      <stop offset="0" stop-color="#e2e2e3"/>
      <stop offset=".2" stop-color="#bfc1c3"/>
      <stop offset=".2" stop-color="#a7a9ac"/>
      <stop offset=".3" stop-color="#b2b6b9"/>
      <stop offset=".5" stop-color="#bec5c9"/>
      <stop offset=".6" stop-color="#c3cbcf"/>
      <stop offset=".8" stop-color="#bcbec0"/>
      <stop offset=".9" stop-color="#b6b8ba"/>
      <stop offset=".9" stop-color="#a7a9ac"/>
      <stop offset="1" stop-color="#e6e7e8"/>
    </linearGradient>
    <linearGradient id="linear-gradient1" x1="303.3" y1="45" x2="303.3" y2="16.8" xlink:href="#linear-gradient"/>
    <linearGradient id="linear-gradient2" x1="504" x2="504" y2="18" xlink:href="#linear-gradient"/>
    <linearGradient id="linear-gradient3" x1="112.3" y1="50.3" x2="112.3" y2="12.2" xlink:href="#linear-gradient"/>
    <linearGradient id="linear-gradient4" x1="369.4" y1="50.3" x2="369.4" y2="12.2" gradientTransform="translate(0 60) scale(1 -1)" gradientUnits="userSpaceOnUse">
      <stop offset="0" stop-color="#fff"/>
      <stop offset="0" stop-color="#f7f7f7"/>
      <stop offset="0" stop-color="#e2e2e3"/>
      <stop offset=".2" stop-color="#bfc1c3"/>
      <stop offset=".2" stop-color="#a7a9ac"/>
      <stop offset=".3" stop-color="#b2b6b9"/>
      <stop offset=".5" stop-color="#bec5c9"/>
      <stop offset=".6" stop-color="#c3cbcf"/>
      <stop offset=".8" stop-color="#bcbec0"/>
      <stop offset=".9" stop-color="#b6b8ba"/>
      <stop offset=".9" stop-color="#a7a9ac"/>
      <stop offset="1" stop-color="#e6e7e8"/>
    </linearGradient>
    <linearGradient id="linear-gradient5" x1="153.5" y1="45" x2="153.5" y2="16.8" xlink:href="#linear-gradient"/>
    <linearGradient id="linear-gradient6" x1="236.8" y1="45" x2="236.8" y2="16.8" xlink:href="#linear-gradient"/>
    <linearGradient id="linear-gradient7" x1="271.9" y1="45" x2="271.9" y2="16.8" xlink:href="#linear-gradient"/>
    <linearGradient id="linear-gradient8" x1="334.5" y1="45" x2="334.5" y2="16.8" gradientTransform="translate(0 60) scale(1 -1)" gradientUnits="userSpaceOnUse">
      <stop offset="0" stop-color="#fff"/>
      <stop offset="0" stop-color="#f7f7f7"/>
      <stop offset="0" stop-color="#e2e2e3"/>
      <stop offset=".2" stop-color="#bfc1c3"/>
      <stop offset=".2" stop-color="#a7a9ac"/>
      <stop offset=".3" stop-color="#b2b6b9"/>
      <stop offset=".5" stop-color="#bec5c9"/>
      <stop offset=".6" stop-color="#c3cbcf"/>
      <stop offset=".8" stop-color="#bcbec0"/>
      <stop offset=".9" stop-color="#b6b8ba"/>
      <stop offset=".9" stop-color="#a7a9ac"/>
      <stop offset="1" stop-color="#e6e7e8"/>
    </linearGradient>
    <linearGradient id="linear-gradient9" x1="433.7" x2="433.7" y2="18" xlink:href="#linear-gradient"/>
    <linearGradient id="linear-gradient10" x1="456.8" x2="456.8" y2="18" xlink:href="#linear-gradient"/>
    <linearGradient id="linear-gradient11" x1="478.6" x2="478.6" y2="18" xlink:href="#linear-gradient"/>
    <linearGradient id="linear-gradient12" x1="530.6" x2="530.6" xlink:href="#linear-gradient"/>
    <linearGradient id="linear-gradient13" x1="560.5" x2="560.5" y2="18" xlink:href="#linear-gradient"/>
    <linearGradient id="linear-gradient14" x1="604.1" y1="41.9" x2="604.1" y2="16.2" xlink:href="#linear-gradient"/>
    <linearGradient id="linear-gradient15" x1="636.1" y1="41.9" x2="636.1" y2="16.2" xlink:href="#linear-gradient"/>
    <linearGradient id="linear-gradient16" x1="194.3" y1="45" x2="194.3" y2="16.8" xlink:href="#linear-gradient"/>
    <linearGradient id="linear-gradient17" x1="211.3" y1="45" x2="211.3" y2="16.8" xlink:href="#linear-gradient"/>
    <linearGradient id="linear-gradient18" x1="678.4" y1="41.9" x2="678.4" y2="16.2" xlink:href="#linear-gradient"/>
    <linearGradient id="linear-gradient19" x1="696.8" y1="41.9" x2="696.8" y2="16.2" xlink:href="#linear-gradient"/>
  </defs>
  <path class="st21" d="M391.8,19.1h23.2v7.3h-23.2v-7.3ZM391.8,29.3h23.2v7.3h-23.2v-7.3ZM391.8,39.6h23.2v7.3h-23.2v-7.3Z"/>
  <path class="st21" d="M291.7,19.1h23.2v7.3h-23.2v-7.3ZM291.7,29.3h23.2v7.3h-23.2v-7.3ZM291.7,39.6h23.2v7.3h-23.2v-7.3Z"/>
  <path class="st21" d="M139.9,32.1h15.7c1.9,0,3-1,3-2.6s-1.1-2.8-3-2.8h-15.7v-7.7h16.4c6.6,0,10.9,3.9,10.9,10.3s-3.1,9.3-8.2,10.2l6.4,7.4h-10.2l-5.9-7.1h-9.4v-7.7Z"/>
  <path class="st21" d="M221.7,33c0-9.3,5.2-14.5,15.2-14.5s15.1,5.2,15.1,14.5-5.2,14.5-15.1,14.5-15.2-5.2-15.2-14.5ZM236.9,39.8c4.6,0,6.6-2.4,6.6-6.9s-2-6.9-6.6-6.9-6.6,2.4-6.6,6.9,2,6.9,6.6,6.9Z"/>
  <path class="st21" d="M258.3,32.1h15.7c1.9,0,3-1,3-2.6s-1.1-2.8-3-2.8h-15.7v-7.7h16.4c6.6,0,10.9,3.9,10.9,10.3s-3.1,9.3-8.2,10.2l6.4,7.4h-10.2l-5.9-7.1h-9.4v-7.7h0Z"/>
  <path class="st21" d="M321,32.2h8.4v7.1h3.6c4.4,0,6.4-2,6.4-6.3s-2-6.3-6.4-6.3h-12v-7.7h12c9.7,0,15,5,15,13.9s-5.2,13.9-15,13.9h-12v-14.7h0Z"/>
  <path class="st21" d="M421,19.1h8.6v10h16.8v17.8h-8.6v-10.3h-8.2v10.3h-8.6v-27.8h0ZM437.8,19.1h8.6v7.7h-8.6v-7.7Z"/>
  <path class="st21" d="M452.5,19.1h8.6v27.8h-8.6v-27.8Z"/>
  <path class="st21" d="M467.3,33c0-9.3,5.6-14.3,16.5-14.3s3.8.2,5.2.6v7.5c-1.4-.3-3.1-.5-5.2-.5-5.2,0-7.9,2.2-7.9,6.8s2.7,6.8,7.9,6.8,3.8-.2,5.2-.5v7.5c-1.4.4-3.1.6-5.2.6-10.9,0-16.5-5-16.5-14.3v-.2Z"/>
  <path class="st21" d="M495.1,19.1h8.4v20.2h9.4v7.7h-17.8v-27.8h0Z"/>
  <path class="st21" d="M519,19.1h23.2v7.3h-23.2v-7.3ZM519,29.3h23.2v7.3h-23.2v-7.3ZM519,39.6h23.2v7.3h-23.2v-7.3Z"/>
  <path class="st21" d="M549.3,46.1v-7.8c4.3.7,7.4,1.2,10.7,1.2s4.4-.3,4.4-1.3-1.1-1.1-4.7-1.7c-9-1.6-11.4-5.3-11.4-9.7,0-7.3,6-8.4,12.6-8.4s7.4.4,10.4,1v8c-3.7-.5-7.5-1-9.9-1s-4.2.1-4.2,1.1,1,1,3.7,1.5c9.4,1.7,11.9,5.7,11.9,9.5,0,7.7-5.7,8.9-12.3,8.9s-7.8-.5-11.1-1.4h-.1Z"/>
  <path class="st21" d="M614.9,19.3v7.5c-1.4-.3-3.1-.5-5.2-.5-5.2,0-7.9,2.2-7.9,6.8s2.7,6.8,7.9,6.8,3.8-.2,5.2-.5v7.5c-1.4.4-3.1.6-5.2.6-10.9,0-16.5-5-16.5-14.3v-.2c0-9.3,5.6-14.3,16.5-14.3"/>
  <path class="st21" d="M621,33c0-9.3,5.2-14.5,15.2-14.5s15.1,5.2,15.1,14.5-5.2,14.5-15.1,14.5-15.2-5.2-15.2-14.5ZM636.2,39.8c4.6,0,6.6-2.4,6.6-6.9s-2-6.9-6.6-6.9-6.6,2.4-6.6,6.9,2,6.9,6.6,6.9Z"/>
  <path class="st21" d="M173.3,27.4l8.8,10.8v8.6h-8.8v-19.5h0ZM173.4,19.1h10.9l10.1,13,10.1-13h10.9l-21.1,25.7-21.1-25.7h.2Z"/>
  <path class="st21" d="M215.7,46.9h-8.8v-8.6l8.8-10.8v19.5h0Z"/>
  <path class="st21" d="M104.7,10.3h14.5l14.6,36.7h-25.8l3.7-10.1h6.5l-6.1-16.4-9.6,26.5h-11.7l13.9-36.7Z"/>
  <path class="st21" d="M348.7,10.3h12.2l12.3,36.6h-12.2l-12.4-36.6h.1ZM378,10.3h12.3l-12.2,33.5-5.7-16,5.6-17.5h0Z"/>
  <path class="st21" d="M657.4,27.4l8.8,10.8v8.6h-8.8v-19.5h0ZM657.5,19.1h10.9l10.1,13,10.1-13h10.9l-21.1,25.7-21.1-25.7h.2Z"/>
  <path class="st21" d="M701.2,46.9h-8.8v-8.6l8.8-10.8v19.5h0Z"/>
  <path class="st21" d="M139.9,32.1h15.7c1.9,0,3-1,3-2.6s-1.1-2.8-3-2.8h-15.7v-7.7h16.4c6.6,0,10.9,3.9,10.9,10.3s-3.1,9.3-8.2,10.2l6.4,7.4h-10.2l-5.9-7.1h-9.4v-7.7Z"/>
  <path class="st21" d="M221.7,33c0-9.3,5.2-14.5,15.2-14.5s15.1,5.2,15.1,14.5-5.2,14.5-15.1,14.5-15.2-5.2-15.2-14.5ZM236.9,39.8c4.6,0,6.6-2.4,6.6-6.9s-2-6.9-6.6-6.9-6.6,2.4-6.6,6.9,2,6.9,6.6,6.9Z"/>
  <path class="st21" d="M258.3,32.1h15.7c1.9,0,3-1,3-2.6s-1.1-2.8-3-2.8h-15.7v-7.7h16.4c6.6,0,10.9,3.9,10.9,10.3s-3.1,9.3-8.2,10.2l6.4,7.4h-10.2l-5.9-7.1h-9.4v-7.7h0Z"/>
  <path class="st21" d="M321,32.2h8.4v7.1h3.6c4.4,0,6.4-2,6.4-6.3s-2-6.3-6.4-6.3h-12v-7.7h12c9.7,0,15,5,15,13.9s-5.2,13.9-15,13.9h-12v-14.7h0Z"/>
  <path class="st21" d="M421,19.1h8.6v10h16.8v17.8h-8.6v-10.3h-8.2v10.3h-8.6v-27.8h0ZM437.8,19.1h8.6v7.7h-8.6v-7.7Z"/>
  <path class="st21" d="M452.5,19.1h8.6v27.8h-8.6v-27.8Z"/>
  <path class="st21" d="M467.3,33c0-9.3,5.6-14.3,16.5-14.3s3.8.2,5.2.6v7.5c-1.4-.3-3.1-.5-5.2-.5-5.2,0-7.9,2.2-7.9,6.8s2.7,6.8,7.9,6.8,3.8-.2,5.2-.5v7.5c-1.4.4-3.1.6-5.2.6-10.9,0-16.5-5-16.5-14.3v-.2Z"/>
  <path class="st21" d="M519,19.1h23.2v7.3h-23.2v-7.3ZM519,29.3h23.2v7.3h-23.2v-7.3ZM519,39.6h23.2v7.3h-23.2v-7.3Z"/>
  <path class="st21" d="M549.3,46.1v-7.8c4.3.7,7.4,1.2,10.7,1.2s4.4-.3,4.4-1.3-1.1-1.1-4.7-1.7c-9-1.6-11.4-5.3-11.4-9.7,0-7.3,6-8.4,12.6-8.4s7.4.4,10.4,1v8c-3.7-.5-7.5-1-9.9-1s-4.2.1-4.2,1.1,1,1,3.7,1.5c9.4,1.7,11.9,5.7,11.9,9.5,0,7.7-5.7,8.9-12.3,8.9s-7.8-.5-11.1-1.4h-.1Z"/>
  <path class="st21" d="M593.2,33c0-9.3,5.6-14.3,16.5-14.3s3.8.2,5.2.6v7.5c-1.4-.3-3.1-.5-5.2-.5-5.2,0-7.9,2.2-7.9,6.8s2.7,6.8,7.9,6.8,3.8-.2,5.2-.5v7.5c-1.4.4-3.1.6-5.2.6-10.9,0-16.5-5-16.5-14.3v-.2Z"/>
  <path class="st21" d="M621,33c0-9.3,5.2-14.5,15.2-14.5s15.1,5.2,15.1,14.5-5.2,14.5-15.1,14.5-15.2-5.2-15.2-14.5ZM636.2,39.8c4.6,0,6.6-2.4,6.6-6.9s-2-6.9-6.6-6.9-6.6,2.4-6.6,6.9,2,6.9,6.6,6.9Z"/>
  <path class="st21" d="M173.3,27.4l8.8,10.8v8.6h-8.8v-19.5h0ZM173.4,19.1h10.9l10.1,13,10.1-13h10.9l-21.1,25.7-21.1-25.7h.2Z"/>
  <path class="st21" d="M215.7,46.9h-8.8v-8.6l8.8-10.8v19.5h0Z"/>
  <path class="st21" d="M657.4,27.4l8.8,10.8v8.6h-8.8v-19.5h0ZM657.5,19.1h10.9l10.1,13,10.1-13h10.9l-21.1,25.7-21.1-25.7h.2Z"/>
  <path class="st21" d="M701.2,46.9h-8.8v-8.6l8.8-10.8v19.5h0Z"/>
  <path class="st5" d="M139.9,32.1h15.7c1.9,0,3-1,3-2.6s-1.1-2.8-3-2.8h-15.7v-7.7h16.4c6.6,0,10.9,3.9,10.9,10.3s-3.1,9.3-8.2,10.2l6.4,7.4h-10.2l-5.9-7.1h-9.4v-7.7Z"/>
  <path class="st5" d="M221.7,33c0-9.3,5.2-14.5,15.2-14.5s15.1,5.2,15.1,14.5-5.2,14.5-15.1,14.5-15.2-5.2-15.2-14.5ZM236.9,39.8c4.6,0,6.6-2.4,6.6-6.9s-2-6.9-6.6-6.9-6.6,2.4-6.6,6.9,2,6.9,6.6,6.9Z"/>
  <path class="st5" d="M258.3,32.1h15.7c1.9,0,3-1,3-2.6s-1.1-2.8-3-2.8h-15.7v-7.7h16.4c6.6,0,10.9,3.9,10.9,10.3s-3.1,9.3-8.2,10.2l6.4,7.4h-10.2l-5.9-7.1h-9.4v-7.7h0Z"/>
  <path class="st5" d="M321,32.2h8.4v7.1h3.6c4.4,0,6.4-2,6.4-6.3s-2-6.3-6.4-6.3h-12v-7.7h12c9.7,0,15,5,15,13.9s-5.2,13.9-15,13.9h-12v-14.7h0Z"/>
  <path class="st5" d="M421,19.1h8.6v10h16.8v17.8h-8.6v-10.3h-8.2v10.3h-8.6v-27.8h0ZM437.8,19.1h8.6v7.7h-8.6v-7.7Z"/>
  <path class="st5" d="M452.5,19.1h8.6v27.8h-8.6v-27.8Z"/>
  <path class="st5" d="M467.3,33c0-9.3,5.6-14.3,16.5-14.3s3.8.2,5.2.6v7.5c-1.4-.3-3.1-.5-5.2-.5-5.2,0-7.9,2.2-7.9,6.8s2.7,6.8,7.9,6.8,3.8-.2,5.2-.5v7.5c-1.4.4-3.1.6-5.2.6-10.9,0-16.5-5-16.5-14.3v-.2Z"/>
  <path class="st5" d="M519,19.1h23.2v7.3h-23.2v-7.3ZM519,29.3h23.2v7.3h-23.2v-7.3ZM519,39.6h23.2v7.3h-23.2v-7.3Z"/>
  <path class="st5" d="M549.3,46.1v-7.8c4.3.7,7.4,1.2,10.7,1.2s4.4-.3,4.4-1.3-1.1-1.1-4.7-1.7c-9-1.6-11.4-5.3-11.4-9.7,0-7.3,6-8.4,12.6-8.4s7.4.4,10.4,1v8c-3.7-.5-7.5-1-9.9-1s-4.2.1-4.2,1.1,1,1,3.7,1.5c9.4,1.7,11.9,5.7,11.9,9.5,0,7.7-5.7,8.9-12.3,8.9s-7.8-.5-11.1-1.4h-.1Z"/>
  <path class="st5" d="M593.2,33c0-9.3,5.6-14.3,16.5-14.3s3.8.2,5.2.6v7.5c-1.4-.3-3.1-.5-5.2-.5-5.2,0-7.9,2.2-7.9,6.8s2.7,6.8,7.9,6.8,3.8-.2,5.2-.5v7.5c-1.4.4-3.1.6-5.2.6-10.9,0-16.5-5-16.5-14.3v-.2Z"/>
  <path class="st5" d="M621,33c0-9.3,5.2-14.5,15.2-14.5s15.1,5.2,15.1,14.5-5.2,14.5-15.1,14.5-15.2-5.2-15.2-14.5ZM636.2,39.8c4.6,0,6.6-2.4,6.6-6.9s-2-6.9-6.6-6.9-6.6,2.4-6.6,6.9,2,6.9,6.6,6.9Z"/>
  <path class="st5" d="M173.3,27.4l8.8,10.8v8.6h-8.8v-19.5h0ZM173.4,19.1h10.9l10.1,13,10.1-13h10.9l-21.1,25.7-21.1-25.7h.2Z"/>
  <path class="st5" d="M215.7,46.9h-8.8v-8.6l8.8-10.8v19.5h0Z"/>
  <path class="st5" d="M657.4,27.4l8.8,10.8v8.6h-8.8v-19.5h0ZM657.5,19.1h10.9l10.1,13,10.1-13h10.9l-21.1,25.7-21.1-25.7h.2Z"/>
  <path class="st5" d="M701.2,46.9h-8.8v-8.6l8.8-10.8v19.5h0Z"/>
  <polygon class="st21" points="585.3 44.5 585.3 44.5 585.3 44.5 585.3 44.5"/>
  <polygon class="st21" points="582.8 37.6 579 37.6 579 39 579 39 579 39.4 579 40.4 579 42.2 579 43.2 579 43.9 580.5 45 581.3 45.6 582.8 46.8 582.8 46.8 582.8 46.8 584.3 45.6 585.1 45 586.6 43.9 586.6 43.2 586.6 42.2 586.6 40.4 586.6 39.4 586.6 39 586.6 39 586.6 37.6 582.8 37.6"/>
  <path class="st8" d="M391.8,19.1h23.2v7.3h-23.2v-7.3ZM391.8,29.3h23.2v7.3h-23.2v-7.3ZM391.8,39.6h23.2v7.3h-23.2v-7.3Z"/>
  <path class="st12" d="M291.7,19.1h23.2v7.3h-23.2v-7.3ZM291.7,29.3h23.2v7.3h-23.2v-7.3ZM291.7,39.6h23.2v7.3h-23.2v-7.3Z"/>
  <path class="st1" d="M495.1,19.1h8.4v20.2h9.4v7.7h-17.8v-27.8h0Z"/>
  <path class="st18" d="M104.7,10.3h14.5l14.6,36.7h-25.8l3.7-10.1h6.5l-6.1-16.4-9.6,26.5h-11.7l13.9-36.7Z"/>
  <path class="st11" d="M348.7,10.3h12.2l12.3,36.6h-12.2l-12.4-36.6h.1ZM378,10.3h12.3l-12.2,33.5-5.7-16,5.6-17.5h0Z"/>
  <path class="st17" d="M139.9,32.1h15.7c1.9,0,3-1,3-2.6s-1.1-2.8-3-2.8h-15.7v-7.7h16.4c6.6,0,10.9,3.9,10.9,10.3s-3.1,9.3-8.2,10.2l6.4,7.4h-10.2l-5.9-7.1h-9.4v-7.7Z"/>
  <path class="st13" d="M221.7,33c0-9.3,5.2-14.5,15.2-14.5s15.1,5.2,15.1,14.5-5.2,14.5-15.1,14.5-15.2-5.2-15.2-14.5ZM236.9,39.8c4.6,0,6.6-2.4,6.6-6.9s-2-6.9-6.6-6.9-6.6,2.4-6.6,6.9,2,6.9,6.6,6.9Z"/>
  <path class="st0" d="M258.3,32.1h15.7c1.9,0,3-1,3-2.6s-1.1-2.8-3-2.8h-15.7v-7.7h16.4c6.6,0,10.9,3.9,10.9,10.3s-3.1,9.3-8.2,10.2l6.4,7.4h-10.2l-5.9-7.1h-9.4v-7.7h0Z"/>
  <path class="st15" d="M321,32.2h8.4v7.1h3.6c4.4,0,6.4-2,6.4-6.3s-2-6.3-6.4-6.3h-12v-7.7h12c9.7,0,15,5,15,13.9s-5.2,13.9-15,13.9h-12v-14.7h0Z"/>
  <path class="st6" d="M421,19.1h8.6v10h16.8v17.8h-8.6v-10.3h-8.2v10.3h-8.6v-27.8h0ZM437.8,19.1h8.6v7.7h-8.6v-7.7Z"/>
  <path class="st20" d="M452.5,19.1h8.6v27.8h-8.6v-27.8Z"/>
  <path class="st3" d="M467.3,33c0-9.3,5.6-14.3,16.5-14.3s3.8.2,5.2.6v7.5c-1.4-.3-3.1-.5-5.2-.5-5.2,0-7.9,2.2-7.9,6.8s2.7,6.8,7.9,6.8,3.8-.2,5.2-.5v7.5c-1.4.4-3.1.6-5.2.6-10.9,0-16.5-5-16.5-14.3v-.2Z"/>
  <path class="st2" d="M519,19.1h23.2v7.3h-23.2v-7.3ZM519,29.3h23.2v7.3h-23.2v-7.3ZM519,39.6h23.2v7.3h-23.2v-7.3Z"/>
  <path class="st7" d="M549.3,46.1v-7.8c4.3.7,7.4,1.2,10.7,1.2s4.4-.3,4.4-1.3-1.1-1.1-4.7-1.7c-9-1.6-11.4-5.3-11.4-9.7,0-7.3,6-8.4,12.6-8.4s7.4.4,10.4,1v8c-3.7-.5-7.5-1-9.9-1s-4.2.1-4.2,1.1,1,1,3.7,1.5c9.4,1.7,11.9,5.7,11.9,9.5,0,7.7-5.7,8.9-12.3,8.9s-7.8-.5-11.1-1.4h-.1Z"/>
  <path class="st19" d="M593.2,33c0-9.3,5.6-14.3,16.5-14.3s3.8.2,5.2.6v7.5c-1.4-.3-3.1-.5-5.2-.5-5.2,0-7.9,2.2-7.9,6.8s2.7,6.8,7.9,6.8,3.8-.2,5.2-.5v7.5c-1.4.4-3.1.6-5.2.6-10.9,0-16.5-5-16.5-14.3v-.2Z"/>
  <path class="st10" d="M621,33c0-9.3,5.2-14.5,15.2-14.5s15.1,5.2,15.1,14.5-5.2,14.5-15.1,14.5-15.2-5.2-15.2-14.5ZM636.2,39.8c4.6,0,6.6-2.4,6.6-6.9s-2-6.9-6.6-6.9-6.6,2.4-6.6,6.9,2,6.9,6.6,6.9Z"/>
  <path class="st4" d="M173.3,27.4l8.8,10.8v8.6h-8.8v-19.5h0ZM173.4,19.1h10.9l10.1,13,10.1-13h10.9l-21.1,25.7-21.1-25.7h.2Z"/>
  <path class="st9" d="M215.7,46.9h-8.8v-8.6l8.8-10.8v19.5h0Z"/>
  <path class="st16" d="M657.4,27.4l8.8,10.8v8.6h-8.8v-19.5h0ZM657.5,19.1h10.9l10.1,13,10.1-13h10.9l-21.1,25.7-21.1-25.7h.2Z"/>
  <path class="st14" d="M701.2,46.9h-8.8v-8.6l8.8-10.8v19.5h0Z"/>
</svg>